<svg id="svg" xmlns="http://www.w3.org/2000/svg" xmlns:xlink="http://www.w3.org/1999/xlink" width="400" height="400" viewBox="0, 0, 400,400"><g id="svgg"><path id="path0" d="M182.813 0.703 C 175.863 2.923,168.492 9.489,165.374 16.237 L 163.672 19.922 163.457 91.582 L 163.242 163.242 91.582 163.457 L 19.922 163.672 15.615 165.789 C 2.895 172.043,0.391 177.671,0.391 200.000 C 0.391 222.192,3.314 228.586,16.204 234.595 L 19.922 236.328 91.582 236.543 L 163.242 236.758 163.457 308.418 L 163.672 380.078 165.374 383.763 C 171.320 396.633,177.824 399.609,200.000 399.609 C 222.192 399.609,228.586 396.686,234.595 383.796 L 236.328 380.078 236.543 308.418 L 236.758 236.758 308.418 236.543 L 380.078 236.328 383.796 234.595 C 396.686 228.586,399.609 222.192,399.609 200.000 C 399.609 177.673,397.098 172.031,384.380 165.785 L 380.078 163.672 308.418 163.457 L 236.758 163.242 236.543 91.582 L 236.328 19.922 234.215 15.620 C 231.613 10.321,226.652 5.192,221.484 2.458 C 217.408 0.301,188.218 -1.024,182.813 0.703 " stroke="none" fill="#000000" fill-rule="evenodd"></path></g></svg>