<svg id="svg" xmlns="http://www.w3.org/2000/svg" xmlns:xlink="http://www.w3.org/1999/xlink" width="400" height="400" viewBox="0, 0, 400,400"><g id="svgg"><path id="path0" d="M78.846 78.846 C 76.301 81.391,76.010 83.385,77.705 86.663 C 79.318 89.780,79.690 89.844,96.358 89.844 L 111.338 89.844 126.474 150.419 C 134.799 183.736,141.476 211.104,141.313 211.238 C 141.149 211.372,139.327 212.310,137.262 213.322 C 117.307 223.110,118.301 253.237,138.893 262.751 L 142.578 264.453 214.277 264.664 L 285.977 264.876 287.910 262.942 C 289.813 261.039,290.405 257.840,289.358 255.113 C 287.983 251.529,288.678 251.563,215.633 251.563 C 149.643 251.563,146.694 251.502,143.914 250.083 C 133.271 244.651,133.271 230.349,143.914 224.917 C 146.694 223.498,149.643 223.438,215.633 223.438 C 273.241 223.437,284.799 223.259,286.577 222.339 C 288.746 221.217,323.438 136.894,323.438 132.744 C 323.438 131.856,322.405 130.097,321.143 128.836 L 318.849 126.542 235.137 126.747 L 151.424 126.953 149.931 128.797 C 147.801 131.428,147.993 135.565,150.355 137.926 L 152.273 139.844 229.578 139.844 L 306.884 139.844 292.812 175.005 L 278.740 210.166 216.958 209.966 L 155.176 209.766 138.964 144.923 C 124.233 86.001,122.566 79.920,120.708 78.321 C 118.709 76.603,118.235 76.563,99.896 76.563 L 81.130 76.563 78.846 78.846 M220.808 78.182 L 218.750 79.801 218.750 91.463 C 218.750 104.973,219.290 106.250,225.000 106.250 C 230.710 106.250,231.250 104.973,231.250 91.463 L 231.250 79.801 229.192 78.182 C 228.059 77.291,226.173 76.563,225.000 76.563 C 223.827 76.563,221.941 77.291,220.808 78.182 M189.375 92.522 C 185.172 94.351,184.819 98.348,188.200 105.806 C 191.690 113.502,198.137 115.244,201.201 109.319 C 203.963 103.978,196.489 89.645,191.876 91.437 C 191.832 91.454,190.707 91.942,189.375 92.522 M255.032 92.506 C 252.689 93.529,247.656 102.671,247.656 105.905 C 247.656 110.980,253.303 114.132,257.945 111.648 C 263.773 108.529,265.684 92.188,260.220 92.188 C 259.826 92.188,259.035 92.025,258.462 91.825 C 257.890 91.626,256.347 91.932,255.032 92.506 M161.328 277.244 C 134.947 284.141,139.240 322.805,166.406 322.972 C 186.881 323.097,197.564 299.643,183.935 284.486 C 178.553 278.499,168.654 275.328,161.328 277.244 M251.953 277.606 C 226.007 286.218,231.391 323.026,258.594 323.003 C 287.845 322.977,289.246 279.088,260.064 276.937 C 257.024 276.713,253.858 276.974,251.953 277.606 M170.768 291.099 C 178.351 294.697,178.259 305.346,170.615 308.974 C 166.805 310.782,162.935 309.966,159.626 306.657 C 152.028 299.060,161.037 286.481,170.768 291.099 M262.003 290.921 C 266.009 292.594,267.969 295.638,267.969 300.183 C 267.969 309.994,255.198 313.489,250.012 305.098 C 244.986 296.965,253.206 287.245,262.003 290.921 " stroke="none" fill="#000000" fill-rule="evenodd"></path></g></svg>