<svg id="svg" xmlns="http://www.w3.org/2000/svg" xmlns:xlink="http://www.w3.org/1999/xlink" width="400" height="400" viewBox="0, 0, 400,400"><g id="svgg"><path id="path0" d="M39.959 1.519 C 30.011 5.196,7.768 26.181,2.952 36.432 C -1.673 46.276,-1.059 59.588,4.478 69.531 C 5.719 71.760,29.636 96.284,69.813 136.523 L 133.190 200.000 69.813 263.477 C 4.810 328.581,3.655 329.845,1.147 338.584 C -3.341 354.222,0.543 364.012,18.265 381.735 C 34.846 398.315,37.257 399.609,51.563 399.609 C 68.236 399.609,61.457 405.142,136.135 330.583 L 200.005 266.814 263.479 330.190 C 303.717 370.365,328.240 394.281,330.469 395.522 C 337.080 399.204,341.612 400.199,350.265 399.870 C 362.832 399.392,366.035 397.551,381.727 381.786 C 398.325 365.112,399.609 362.717,399.609 348.454 C 399.609 331.761,405.149 338.550,330.585 263.867 L 266.819 200.000 330.585 136.133 C 405.149 61.450,399.609 68.239,399.609 51.546 C 399.609 37.265,398.323 34.870,381.727 18.265 C 364.015 0.543,354.224 -3.342,338.584 1.147 C 329.845 3.655,328.581 4.810,263.479 69.810 L 200.005 133.186 136.135 69.417 C 62.234 -4.366,68.262 0.636,52.734 0.210 C 45.694 0.016,43.385 0.253,39.959 1.519 " stroke="none" fill="#000000" fill-rule="evenodd"></path></g></svg>