<svg id="svg" xmlns="http://www.w3.org/2000/svg" xmlns:xlink="http://www.w3.org/1999/xlink" width="400" height="400" viewBox="0, 0, 400,400"><g id="svgg"><path id="path0" d="M89.258 21.138 C 57.793 25.278,31.502 48.613,22.851 80.078 L 20.703 87.891 20.703 200.000 L 20.703 312.109 22.851 319.922 C 30.593 348.081,51.919 369.407,80.078 377.149 L 87.891 379.297 200.000 379.297 L 312.109 379.297 319.922 377.149 C 348.089 369.405,369.476 348.010,377.130 319.922 L 379.259 312.109 379.278 253.769 C 379.297 195.783,379.287 195.415,377.663 193.222 C 372.039 185.629,360.752 185.405,355.745 192.787 C 354.378 194.802,354.272 198.123,353.859 251.953 C 353.463 303.456,353.286 309.439,352.036 313.672 C 346.411 332.714,332.262 346.738,313.281 352.085 C 308.471 353.440,302.505 353.516,200.000 353.516 C 97.495 353.516,91.529 353.440,86.719 352.085 C 67.554 346.686,53.314 332.446,47.915 313.281 C 45.740 305.560,45.692 94.667,47.863 86.807 C 53.067 67.969,67.376 53.519,86.385 47.903 C 90.546 46.674,96.756 46.493,147.656 46.119 C 199.343 45.740,204.512 45.585,206.761 44.355 C 214.546 40.094,214.556 28.101,206.779 22.337 C 204.412 20.583,101.459 19.533,89.258 21.138 M291.969 33.984 C 282.394 36.415,279.436 38.515,263.672 54.075 L 248.828 68.726 251.846 74.402 C 271.125 110.665,290.119 129.609,326.075 148.438 L 331.297 151.172 345.937 136.328 C 369.143 112.799,373.187 97.157,360.969 78.188 C 358.146 73.804,324.933 40.754,320.977 38.391 C 313.129 33.704,300.583 31.798,291.969 33.984 M181.164 136.523 C 131.236 186.589,128.933 189.138,126.284 197.266 C 124.911 201.477,116.406 259.200,116.406 264.306 C 116.406 274.791,125.209 283.594,135.694 283.594 C 142.098 283.594,198.830 275.022,203.516 273.347 C 211.786 270.390,215.194 267.293,264.715 217.736 L 313.415 169.002 306.122 164.856 C 273.528 146.326,253.636 126.444,235.178 93.945 C 232.921 89.971,231.019 86.719,230.953 86.719 C 230.886 86.719,208.481 109.131,181.164 136.523 " stroke="none" fill="#000000" fill-rule="evenodd"></path></g></svg>