<svg id="svg" xmlns="http://www.w3.org/2000/svg" xmlns:xlink="http://www.w3.org/1999/xlink" width="400" height="400" viewBox="0, 0, 400,400"><g id="svgg"><path id="path0" d="M128.516 91.392 C 90.703 107.192,58.975 120.707,58.008 121.425 L 56.250 122.729 56.250 209.290 C 56.250 290.744,56.331 295.924,57.617 297.072 C 59.582 298.827,197.743 356.250,200.000 356.250 C 202.257 356.250,340.418 298.827,342.383 297.072 C 344.504 295.179,344.504 123.571,342.383 121.678 C 340.028 119.575,202.086 62.493,199.575 62.582 C 198.305 62.627,166.328 75.591,128.516 91.392 M223.617 86.117 C 236.391 91.389,246.846 95.879,246.850 96.094 C 246.853 96.309,220.020 107.654,187.220 121.305 L 127.584 146.125 104.612 136.606 C 91.978 131.371,81.378 126.865,81.057 126.593 C 80.541 126.156,197.639 76.777,199.609 76.600 C 200.039 76.561,210.842 80.844,223.617 86.117 M318.942 126.594 C 317.826 127.539,201.163 175.798,200.000 175.795 C 198.633 175.793,145.259 153.699,145.657 153.301 C 145.804 153.154,172.741 141.871,205.516 128.228 L 265.107 103.422 292.316 114.761 C 307.281 120.998,319.262 126.322,318.942 126.594 M131.687 162.421 L 193.359 188.122 193.559 263.959 C 193.752 337.602,193.716 339.780,192.305 339.234 C 191.507 338.925,163.388 327.246,129.820 313.281 L 68.787 287.891 68.768 212.305 C 68.758 170.732,69.035 136.719,69.383 136.719 C 69.731 136.719,97.768 148.285,131.687 162.421 M331.232 212.305 L 331.213 287.891 270.180 313.281 C 236.612 327.246,208.493 338.925,207.695 339.234 C 206.284 339.780,206.248 337.602,206.441 263.959 L 206.641 188.121 267.969 162.486 C 301.699 148.387,329.736 136.822,330.273 136.785 C 331.049 136.732,331.246 152.312,331.232 212.305 M238.036 269.513 C 216.380 278.699,218.750 274.801,218.750 301.236 L 218.750 323.324 220.808 324.943 C 223.885 327.364,224.812 327.145,242.578 319.800 C 264.842 310.596,262.500 314.357,262.500 287.811 L 262.500 265.738 260.442 264.119 C 257.310 261.656,255.573 262.074,238.036 269.513 M250.000 290.905 L 250.000 302.122 241.211 305.755 C 236.377 307.753,232.158 309.384,231.836 309.381 C 231.514 309.378,231.250 304.328,231.250 298.160 L 231.250 286.945 239.648 283.383 C 244.268 281.424,248.486 279.791,249.023 279.754 C 249.762 279.704,250.000 282.416,250.000 290.905 " stroke="none" fill="#000000" fill-rule="evenodd"></path></g></svg>