<svg id="svg" xmlns="http://www.w3.org/2000/svg" xmlns:xlink="http://www.w3.org/1999/xlink" width="400" height="400" viewBox="0, 0, 400,400"><g id="svgg"><path id="path0" d="M65.011 51.668 C 59.416 53.818,53.750 59.566,51.623 65.251 L 49.987 69.626 50.189 201.024 L 50.391 332.422 52.197 336.090 C 54.503 340.771,59.229 345.497,63.910 347.803 L 67.578 349.609 117.188 349.811 C 165.607 350.009,166.858 349.976,169.343 348.451 C 177.052 343.722,177.052 331.258,169.343 326.558 C 166.879 325.056,165.320 325.006,120.898 325.003 L 75.000 325.000 75.000 200.000 L 75.000 75.000 120.898 74.997 C 165.320 74.994,166.879 74.944,169.343 73.442 C 177.051 68.742,177.051 56.258,169.343 51.558 C 165.339 49.117,71.394 49.216,65.011 51.668 M265.638 123.321 C 260.476 126.090,258.139 131.554,259.491 137.694 C 260.146 140.669,262.646 143.443,283.427 164.258 L 306.631 187.500 232.417 187.503 C 159.741 187.506,158.150 187.538,155.657 189.058 C 147.949 193.758,147.949 206.242,155.657 210.942 C 158.150 212.462,159.741 212.494,232.417 212.497 L 306.631 212.500 283.866 235.352 C 259.267 260.045,259.195 260.134,259.195 265.711 C 259.195 274.887,269.495 281.355,277.590 277.262 C 280.017 276.035,347.526 208.640,348.879 206.093 C 350.321 203.379,350.322 196.621,348.879 193.907 C 347.241 190.823,280.527 124.594,277.578 123.122 C 274.238 121.456,268.951 121.545,265.638 123.321 " stroke="none" fill="#000000" fill-rule="evenodd"></path></g></svg>