<svg id="svg" xmlns="http://www.w3.org/2000/svg" xmlns:xlink="http://www.w3.org/1999/xlink" width="400" height="400" viewBox="0, 0, 400,400"><g id="svgg"><path id="path0" d="M180.772 56.234 C 177.298 57.638,175.781 60.761,175.781 66.512 L 175.781 71.875 172.214 71.875 C 166.442 71.875,161.510 75.442,160.114 80.627 L 159.315 83.594 129.657 83.594 L 100.000 83.594 100.000 216.016 L 100.000 348.438 202.344 348.438 L 304.688 348.438 304.688 216.016 L 304.688 83.594 274.733 83.594 L 244.779 83.594 243.874 80.576 C 242.199 74.983,237.811 71.875,231.590 71.875 L 228.125 71.875 228.125 66.163 C 228.125 59.972,226.957 57.737,222.921 56.202 C 220.525 55.291,183.035 55.320,180.772 56.234 M215.625 76.563 L 215.625 84.375 223.438 84.375 L 231.250 84.375 231.250 89.844 L 231.250 95.313 201.953 95.313 L 172.656 95.313 172.656 89.844 L 172.656 84.375 180.469 84.375 L 188.281 84.375 188.281 76.563 L 188.281 68.750 201.953 68.750 L 215.625 68.750 215.625 76.563 M159.375 102.344 L 159.375 108.594 201.953 108.594 L 244.531 108.594 244.531 102.344 L 244.531 96.094 267.969 96.094 L 291.406 96.094 291.406 216.016 L 291.406 335.938 201.953 335.938 L 112.500 335.938 112.500 216.016 L 112.500 96.094 135.938 96.094 L 159.375 96.094 159.375 102.344 M245.614 148.762 L 226.775 159.126 224.332 154.172 C 222.989 151.448,221.525 149.219,221.079 149.219 C 220.403 149.219,211.075 153.624,210.305 154.306 C 209.968 154.605,221.012 176.563,221.499 176.563 C 222.483 176.563,271.094 149.650,271.094 149.105 C 271.094 148.076,265.517 138.277,264.967 138.340 C 264.685 138.372,255.976 143.062,245.614 148.762 M135.938 162.109 L 135.938 168.750 162.109 168.750 L 188.281 168.750 188.281 162.109 L 188.281 155.469 162.109 155.469 L 135.938 155.469 135.938 162.109 M245.313 196.900 L 226.953 206.972 224.403 201.924 C 223.001 199.147,221.674 196.875,221.454 196.875 C 220.723 196.875,210.156 202.357,210.156 202.737 C 210.156 204.139,220.866 224.219,221.614 224.219 C 222.606 224.219,269.434 198.846,270.608 197.672 C 271.495 196.786,266.246 187.156,264.774 186.969 C 264.168 186.891,255.410 191.361,245.313 196.900 M135.938 210.156 L 135.938 216.406 162.109 216.406 L 188.281 216.406 188.281 210.156 L 188.281 203.906 162.109 203.906 L 135.938 203.906 135.938 210.156 M135.938 253.906 L 135.938 260.156 202.344 260.156 L 268.750 260.156 268.750 253.906 L 268.750 247.656 202.344 247.656 L 135.938 247.656 135.938 253.906 M135.938 293.750 L 135.938 300.000 202.344 300.000 L 268.750 300.000 268.750 293.750 L 268.750 287.500 202.344 287.500 L 135.938 287.500 135.938 293.750 " stroke="none" fill="#000000" fill-rule="evenodd"></path></g></svg>