<svg id="svg" xmlns="http://www.w3.org/2000/svg" xmlns:xlink="http://www.w3.org/1999/xlink" width="400" height="400" viewBox="0, 0, 400,400"><g id="svgg"><path id="path0" d="M320.695 114.111 C 300.293 116.801,291.441 143.199,305.937 158.125 L 308.754 161.025 306.135 164.770 C 304.694 166.830,290.008 187.816,273.499 211.406 L 243.481 254.297 235.588 254.297 C 229.501 254.297,226.937 254.638,224.386 255.786 C 222.566 256.605,220.958 257.133,220.810 256.958 C 220.663 256.784,210.485 243.216,198.192 226.809 L 175.842 196.977 178.284 192.241 C 191.862 165.914,157.226 140.389,136.308 161.308 C 129.028 168.588,126.775 181.835,131.206 191.308 L 133.116 195.389 111.770 216.746 L 90.424 238.103 86.032 236.043 C 60.482 224.064,36.457 256.784,55.502 277.622 C 75.510 299.515,111.920 275.454,98.918 248.932 L 96.671 244.348 118.062 222.970 L 139.453 201.592 143.596 203.650 C 149.500 206.584,157.276 206.993,163.978 204.724 C 166.724 203.795,169.227 203.318,169.540 203.665 C 169.853 204.013,180.002 217.514,192.092 233.668 L 214.074 263.039 211.529 267.976 C 202.365 285.754,214.910 305.866,235.156 305.856 C 258.271 305.844,269.601 280.412,254.558 262.310 L 251.478 258.604 283.902 212.279 L 316.326 165.954 323.983 165.985 C 335.918 166.033,344.425 161.008,348.879 151.281 C 357.772 131.855,342.171 111.281,320.695 114.111 M331.769 128.549 C 339.591 133.134,340.577 144.395,333.664 150.211 C 324.765 157.699,311.719 151.532,311.719 139.838 C 311.719 129.590,322.850 123.323,331.769 128.549 M160.547 167.876 C 172.849 173.525,170.301 190.884,156.802 193.387 C 150.685 194.521,144.050 190.117,142.107 183.634 C 138.910 172.963,150.345 163.191,160.547 167.876 M78.296 246.909 C 89.746 250.089,91.926 265.498,81.769 271.451 C 72.860 276.671,61.719 270.399,61.719 260.162 C 61.719 251.070,69.855 244.565,78.296 246.909 M240.076 267.462 C 248.059 270.797,250.863 281.195,245.630 288.056 C 234.980 302.018,214.101 286.084,224.292 271.772 C 227.470 267.308,234.872 265.287,240.076 267.462 M39.844 359.766 L 39.844 364.063 200.000 364.063 L 360.156 364.063 360.156 359.766 L 360.156 355.469 200.000 355.469 L 39.844 355.469 39.844 359.766 " stroke="none" fill="#000000" fill-rule="evenodd"></path></g></svg>