<svg id="svg" xmlns="http://www.w3.org/2000/svg" xmlns:xlink="http://www.w3.org/1999/xlink" width="400" height="400" viewBox="0, 0, 400,400"><g id="svgg"><path id="path0" d="M163.160 1.073 C 149.915 5.877,146.298 11.538,140.728 36.186 C 138.610 45.558,136.754 53.292,136.603 53.371 C 136.452 53.451,132.575 55.374,127.988 57.646 C 123.400 59.918,116.199 64.083,111.984 66.901 L 104.320 72.024 87.786 66.791 C 64.272 59.348,53.368 60.186,44.409 70.125 C 40.048 74.963,11.127 125.758,9.773 130.959 C 6.161 144.826,9.623 152.114,27.844 168.999 L 40.802 181.007 40.802 200.029 L 40.802 219.052 27.852 231.016 C 2.213 254.705,2.135 258.297,26.362 300.260 C 50.514 342.094,53.811 343.865,87.729 333.209 L 104.370 327.981 111.582 332.805 C 117.837 336.989,132.692 345.197,135.823 346.200 C 136.500 346.416,138.256 352.691,140.710 363.657 C 145.843 386.597,148.409 391.334,158.734 396.932 L 163.672 399.609 200.000 399.609 L 236.328 399.609 241.266 396.932 C 251.576 391.342,254.081 386.719,259.271 363.695 C 261.721 352.826,263.524 346.409,264.187 346.196 C 267.362 345.180,282.133 336.995,288.362 332.800 L 295.580 327.940 312.260 333.187 C 336.178 340.712,347.028 339.793,355.842 329.496 C 360.554 323.991,388.892 274.168,390.227 269.041 C 393.839 255.174,390.377 247.886,372.156 231.001 L 359.198 218.993 359.198 199.971 L 359.198 180.948 372.148 168.984 C 397.799 145.284,397.877 141.629,373.616 99.676 C 349.462 57.908,346.171 56.144,312.313 66.796 L 295.684 72.027 288.019 66.902 C 283.802 64.083,276.600 59.918,272.012 57.646 C 267.425 55.374,263.532 53.435,263.362 53.336 C 263.191 53.237,261.343 45.521,259.256 36.190 C 254.160 13.416,251.575 8.657,241.266 3.068 L 236.328 0.391 201.172 0.214 C 173.575 0.075,165.402 0.260,163.160 1.073 M229.990 26.700 C 230.516 27.419,232.811 36.384,235.090 46.621 C 240.979 73.078,240.087 71.546,252.899 77.210 C 263.027 81.687,271.129 86.450,280.720 93.565 C 290.541 100.851,290.398 100.852,313.842 93.445 C 324.192 90.175,333.540 87.500,334.614 87.500 C 336.329 87.500,356.042 119.540,364.776 136.523 C 366.126 139.149,365.573 139.799,349.276 154.711 C 331.430 171.042,331.397 171.096,332.721 182.321 C 333.839 191.797,333.839 208.203,332.721 217.679 C 331.399 228.894,331.435 228.955,349.273 245.273 C 365.565 260.178,366.135 260.849,364.760 263.477 C 354.956 282.207,336.349 312.500,334.648 312.500 C 333.583 312.500,324.391 309.863,314.221 306.641 C 290.330 299.070,290.197 299.070,280.346 306.683 C 272.884 312.449,262.370 318.605,253.168 322.596 C 240.247 328.200,241.158 326.665,235.203 352.860 C 232.714 363.805,230.262 373.175,229.753 373.684 C 228.431 375.007,171.570 375.007,170.247 373.685 C 169.739 373.176,167.310 363.851,164.850 352.962 C 158.995 327.041,159.371 327.688,147.266 322.728 C 138.816 319.267,128.840 313.493,120.698 307.351 C 109.607 298.987,110.083 298.996,85.887 306.641 C 75.686 309.863,66.465 312.500,65.396 312.500 C 63.732 312.500,45.043 282.044,34.604 262.321 C 33.927 261.041,36.457 258.372,50.707 245.336 C 68.608 228.961,68.689 228.825,67.308 217.586 C 66.153 208.186,66.153 191.814,67.308 182.414 C 68.691 171.159,68.603 171.011,50.725 154.698 C 36.559 141.772,33.917 138.982,34.603 137.679 C 44.772 118.380,63.716 87.500,65.387 87.500 C 66.461 87.500,75.686 90.137,85.887 93.359 C 109.813 100.918,110.008 100.918,119.785 93.268 C 127.013 87.612,137.565 81.423,146.832 77.404 C 159.737 71.807,158.991 73.039,164.589 48.061 C 169.686 25.318,169.292 26.616,171.358 25.766 C 174.774 24.358,228.909 25.221,229.990 26.700 M185.508 117.497 C 118.540 130.277,93.088 211.156,140.966 259.034 C 186.574 304.641,264.255 283.683,281.058 221.237 C 296.635 163.350,244.103 106.315,185.508 117.497 M213.162 143.762 C 249.495 152.472,268.023 191.830,251.598 225.413 C 227.906 273.856,156.364 265.729,143.762 213.162 C 133.865 171.880,171.880 133.865,213.162 143.762 " stroke="none" fill="#000000" fill-rule="evenodd"></path></g></svg>