<svg id="svg" xmlns="http://www.w3.org/2000/svg" xmlns:xlink="http://www.w3.org/1999/xlink" width="400" height="400" viewBox="0, 0, 400,400"><g id="svgg"><path id="path0" d="M191.723 1.914 C 187.815 2.924,183.069 4.559,181.176 5.548 C 178.060 7.174,176.846 7.325,168.359 7.143 C 133.215 6.390,103.152 31.056,93.987 68.164 L 91.912 76.563 73.495 76.567 C 53.863 76.572,50.666 77.008,46.871 80.201 C 41.999 84.301,42.924 76.538,28.013 238.565 L 14.073 390.033 15.577 393.433 C 18.806 400.732,-1.941 399.994,200.000 399.994 C 401.942 399.994,381.194 400.732,384.423 393.433 L 385.927 390.033 371.956 238.288 L 357.985 86.543 355.750 83.380 C 351.194 76.931,351.512 76.983,315.144 76.726 L 283.022 76.498 282.524 71.647 C 277.694 24.616,233.926 -8.997,191.723 1.914 M218.895 13.634 C 245.198 19.209,265.139 42.552,269.827 73.259 L 270.336 76.596 254.956 76.384 L 239.576 76.172 238.524 71.484 C 233.206 47.789,218.974 27.342,200.034 16.188 C 197.742 14.838,196.941 14.004,197.690 13.748 C 201.904 12.304,212.357 12.248,218.895 13.634 M155.672 24.536 C 145.615 35.540,137.607 52.385,135.151 67.702 C 133.545 77.722,135.598 76.563,119.454 76.563 L 105.345 76.563 105.879 74.023 C 111.037 49.527,129.860 28.077,151.663 21.846 C 159.712 19.546,160.034 19.762,155.672 24.536 M185.883 23.745 C 205.105 31.555,220.746 51.264,226.096 74.414 L 226.592 76.563 186.724 76.563 L 146.857 76.562 147.363 73.242 C 150.387 53.436,159.752 36.747,174.484 24.912 C 178.914 21.354,179.780 21.265,185.883 23.745 M90.833 102.148 C 91.075 108.916,91.499 115.023,91.775 115.720 C 92.142 116.645,91.341 117.535,88.802 119.023 C 74.470 127.422,77.105 150.262,93.055 155.890 C 116.967 164.327,131.941 130.060,109.556 118.128 C 104.073 115.206,103.906 114.644,103.906 99.110 L 103.906 89.844 166.122 89.844 L 228.337 89.844 227.895 101.367 C 227.357 115.406,227.174 116.083,223.600 117.263 C 206.605 122.872,207.563 150.068,224.958 155.846 C 249.095 163.862,263.202 130.792,241.282 117.578 C 240.123 116.879,240.066 115.848,240.739 107.813 C 241.153 102.871,241.385 96.806,241.254 94.335 L 241.016 89.841 263.440 89.842 L 285.864 89.844 285.437 93.555 C 285.202 95.596,278.436 162.480,270.401 242.188 L 255.792 387.109 141.491 387.307 L 27.190 387.505 27.687 383.010 C 27.961 380.538,34.118 313.931,41.369 234.995 C 48.620 156.059,54.780 91.108,55.057 90.659 C 55.383 90.132,61.722 89.844,72.976 89.844 L 90.392 89.844 90.833 102.148 M314.063 214.756 L 314.062 339.669 291.992 358.813 C 279.854 369.342,269.857 377.900,269.778 377.832 C 269.698 377.763,276.112 313.553,284.030 235.142 C 291.948 156.732,298.429 91.963,298.432 91.211 C 298.437 90.000,299.332 89.844,306.250 89.844 L 314.063 89.844 314.063 214.756 M344.945 90.663 C 345.462 91.500,372.011 376.475,371.671 377.540 C 371.568 377.863,361.552 369.490,349.414 358.933 L 327.344 339.740 327.344 214.792 L 327.344 89.844 335.891 89.844 C 341.009 89.844,344.642 90.172,344.945 90.663 M104.944 130.503 C 109.246 133.887,108.226 140.640,103.027 143.182 C 96.520 146.364,89.932 139.439,93.290 132.946 C 95.523 128.628,101.079 127.463,104.944 130.503 M236.925 130.889 C 240.918 134.881,240.013 140.824,235.057 143.161 C 227.367 146.786,220.507 137.186,226.502 131.190 C 229.555 128.138,234.045 128.008,236.925 130.889 M342.480 370.313 L 361.807 387.109 341.505 387.318 C 330.340 387.432,311.810 387.432,300.328 387.318 L 279.453 387.109 299.936 369.329 C 317.969 353.677,320.583 351.667,321.786 352.532 C 322.537 353.073,331.850 361.074,342.480 370.313 " stroke="none" fill="#000000" fill-rule="evenodd"></path></g></svg>