<svg id="svg" xmlns="http://www.w3.org/2000/svg" xmlns:xlink="http://www.w3.org/1999/xlink" width="400" height="400" viewBox="0, 0, 400,400"><g id="svgg"><path id="path0" d="M110.938 33.684 C 107.031 34.860,103.356 37.891,101.555 41.420 C 100.021 44.429,100.000 46.215,100.000 176.693 L 100.000 308.917 79.883 288.945 C 63.349 272.530,59.107 268.726,56.069 267.589 C 42.694 262.582,29.093 275.681,33.974 288.867 C 35.705 293.543,104.411 363.185,109.766 365.691 C 114.065 367.703,119.091 367.568,123.828 365.313 C 128.934 362.883,196.880 295.029,198.788 290.455 C 203.545 279.054,195.348 266.406,183.203 266.406 C 176.696 266.406,174.832 267.827,153.718 288.880 L 133.607 308.931 133.405 176.536 L 133.203 44.141 131.570 41.016 C 128.333 34.822,118.620 31.371,110.938 33.684 M293.726 34.012 C 287.620 35.895,287.561 36.011,259.755 101.013 L 233.422 162.572 233.723 167.905 C 234.742 185.948,257.205 189.319,265.919 172.737 L 268.835 167.188 300.027 167.188 L 331.218 167.188 332.904 170.508 C 342.525 189.464,365.159 187.699,366.277 167.905 L 366.578 162.572 340.245 101.013 C 323.549 61.985,313.164 38.660,311.870 37.286 C 308.152 33.339,300.430 31.946,293.726 34.012 M308.370 111.914 C 312.757 121.904,316.574 130.693,316.851 131.445 C 317.321 132.721,316.199 132.813,300.000 132.813 C 283.801 132.813,282.679 132.721,283.149 131.445 C 284.700 127.237,299.670 93.750,300.000 93.750 C 300.217 93.750,303.983 101.924,308.370 111.914 M251.599 218.988 C 240.772 222.440,237.785 239.586,246.581 247.802 C 250.844 251.783,251.670 251.892,281.071 252.327 L 308.627 252.734 276.463 297.253 C 240.873 346.513,241.913 344.819,242.320 352.871 C 242.592 358.274,242.756 358.701,245.713 361.729 C 251.156 367.303,250.757 367.266,302.104 367.017 L 347.390 366.797 351.163 364.453 C 361.063 358.304,361.064 341.698,351.164 335.547 L 347.392 333.203 319.345 332.813 L 291.298 332.422 323.484 287.891 C 358.759 239.086,357.815 240.595,357.807 233.033 C 357.800 225.610,354.084 220.740,346.907 218.746 C 342.931 217.641,255.124 217.865,251.599 218.988 " stroke="none" fill="#000000" fill-rule="evenodd"></path></g></svg>