<svg id="svg" xmlns="http://www.w3.org/2000/svg" xmlns:xlink="http://www.w3.org/1999/xlink" width="400" height="400" viewBox="0, 0, 400,400"><g id="svgg"><path id="path0" d="M110.938 33.684 C 107.031 34.860,103.356 37.891,101.555 41.420 C 100.021 44.429,100.000 46.215,100.000 176.693 L 100.000 308.917 79.883 288.945 C 63.349 272.530,59.107 268.726,56.069 267.589 C 42.694 262.582,29.093 275.681,33.974 288.867 C 35.705 293.543,104.411 363.185,109.766 365.691 C 114.065 367.703,119.091 367.568,123.828 365.313 C 128.934 362.883,196.880 295.029,198.788 290.455 C 203.545 279.054,195.348 266.406,183.203 266.406 C 176.696 266.406,174.832 267.827,153.718 288.880 L 133.607 308.931 133.405 176.536 L 133.203 44.141 131.570 41.016 C 128.333 34.822,118.620 31.371,110.938 33.684 M301.563 34.599 C 298.282 35.613,263.491 69.570,260.450 74.725 C 249.921 92.576,272.469 108.663,287.980 94.365 L 291.406 91.207 291.406 120.604 L 291.406 150.000 280.438 150.000 C 268.060 150.000,265.059 150.899,261.394 155.704 C 255.331 163.653,257.860 177.605,266.106 181.697 C 269.788 183.525,341.549 184.457,347.854 182.759 C 359.917 179.511,362.513 161.090,352.079 152.780 L 349.079 150.391 337.040 150.140 L 325.000 149.890 324.983 97.406 C 324.964 39.428,325.087 40.921,319.988 36.911 C 316.233 33.957,307.273 32.833,301.563 34.599 M296.484 217.564 C 237.882 230.487,233.848 312.636,290.887 331.558 C 292.137 331.972,291.812 332.673,288.338 337.038 C 281.495 345.637,280.389 351.085,284.010 358.352 C 288.138 366.635,298.672 369.629,306.824 364.836 C 310.137 362.888,348.895 316.525,351.563 311.319 C 352.207 310.061,353.342 308.414,354.084 307.658 C 362.760 298.830,367.786 273.383,363.773 258.594 C 355.936 229.703,325.526 211.160,296.484 217.564 M318.603 253.175 C 333.920 260.829,337.488 280.074,325.719 291.565 C 312.924 304.058,293.543 300.745,286.252 284.818 C 276.955 264.513,298.710 243.234,318.603 253.175 " stroke="none" fill="#000000" fill-rule="evenodd"></path></g></svg>